<svg width="500" height="500" xmlns="http://www.w3.org/2000/svg"><path d="M29.552 402.101c27.285-31.775 68.529-26.829 91.111-33.808 24.925-7.712 41.423-23.136 44.774-46.483 3.352-23.347 12.333-64.916 29.53-79.999 17.197-15.082 46.353-39.974 44.612-73.327-1.741-33.353-12.398-109.333-6.232-140.034 2.604-13.016 76.696-10.299 75.98 3.384-.716 13.683 3.254 83.708 11.877 100.742 8.623 17.035 26.032 18.271 38.071 1.953 12.04-16.319 28.814-52.275 37.242-53.316 8.428-1.042 84.082 50.436 76.305 58.831-41.797 44.888-80.747 140.278-101.702 158.386-24.405 21.07-53.349 6.638-78.095 6.085-24.746-.553-56.684 7.159-60.751 44.189-10.82 98.61-81.512 73.962-146.786 130.158-12.3 10.51-74.906-54.666-55.936-76.76zm213.33-46.938c-1.188 4.88-6.15 23.689-5.288 29.822.862 6.134 7.5 8.233 13.243.277 20.11-27.821-3.563-48.695-7.956-30.1zm-12.317 50.875c-3.4 2.783-9.339 17.718-1.415 15.099 17.734-5.939 13.406-24.942 1.415-15.147v.048zm168.311-287.03c-6.052 8.134-13.927 44.92 4.019 23.51 2.717-3.255 9.225-17.1 8.444-23.869-.781-6.768-7.875-5.906-12.463.358zM303.47 147.82c-3.14 4.474 5.304 19.296 7.972 22.208 10.088 10.982 14.643 3.563 8.607-4.035-5.532-6.947-12.007-24.665-16.579-18.173zm94.186-53.544c-2.245 2.75-4.474 11.145-2.034 12.365 2.44 1.22 8.786-6.133 9.567-9.03.78-2.895-5.255-6.15-7.533-3.351v.016zm-189.543 29.709c1.806 5.434 4.637 11.389 4.116 15.88-2.391 20.613 20.94 24.908 10.088-1.319-1.497-3.595-.489-13.016.894-19.296 1.497-6.93-1.627-41.26-3.123-48.077-7.078-32.767-24.535 15.05-11.975 52.812zm4.36 52.649c4.572 2.099-3.254 9.42-3.254 13.016-.097 4.994 7.11 6.41 12.544-.96 11.861-16.042-.634-27.35-8.135-23.347-4.132 2.326-6.345 8.915-1.155 11.29z" fill="#F4F5F6" fill-rule="evenodd"/></svg>