<svg width="500" height="500" xmlns="http://www.w3.org/2000/svg"><path d="M151.655 369.268c36.059 2.309 77.209-20.339 79.06-54.504 1.85-34.165-25.431-36.99-53.17-30.522-26.062 6.082-53.17-5.092-60.571-36.99-3.127-13.512-49.01 7.86-64.73-44.393-8.047-26.792 17.57-36.574 17.57-48.594 0-12.02-24.957-15.247-11.088-38.368 13.87-23.12 41.595-22.188 46.228-24.082 4.633-1.893 12.493-29.56 76.75-25.387 40.318 2.61 103.643 18.488 124.383 68.417 9.552 22.949 25.66 30.622 36.99 30.98 14.803.46 35.6-12.908 55.939 19.421 95.539 152.037-109.237 294.478-255.22 233.491-36.518-15.261-29.519-51.865 7.86-49.47zM26.354 145.946c-6.813 1.807-8.778 14.329-2.768 19.42 6.01 5.092 26.821-.917 26.821-9.25 0-8.076-13.41-12.938-24.053-10.17zm4.619 112.35c-6.842 4.302-8.32 12.908-4.16 17.57 4.16 4.661 13.41 6.01 19.88.459 6.468-5.551 9.71-15.261 7.4-18.962-2.309-3.7-14.328-4.618-23.106.932h-.014zm46.7 30.522a8.606 8.606 0 007.402 11.56c7.4.918 12.478-9.71 9.71-14.802-2.768-5.092-13.87-3.7-17.111 3.242zm-.917-32.358c-2.869 2.05-1.85 9.25 2.309 9.71 4.16.459 9.251-4.16 7.86-7.86-1.162-3.127-6.928-4.174-10.17-1.865v.015zm273.25-110.973c13.97 2.223 24.54-3.528 40.69.918 16.48 4.547 23.294 13.511 29.031 30.364 6.67 19.593 22.949 19.909 19.005-9.681-3.945-29.59-45.267-66.452-78.084-70.611-53.93-6.842-46.142 43.359-10.643 49.01zm95.237 66.122c.416 7.386 12.479 14.343 21.73 6.01 27.64-24.886 5.006-36.991-10.17-28.199-4.56 2.625-12.019 13.855-11.545 22.189h-.015zm-6.01 23.12c-4.302 3.3-3.7 19.421.46 22.19 4.16 2.768 13.87-.46 13.41-15.778-.215-7.473-7.845-11.044-13.855-6.426l-.014.015zm-330.578 77.669c-2.224 4.776 1.434 12.908 10.169 11.56 8.735-1.348 10.628-8.319 6.469-14.343-4.16-6.024-13.397-4.088-16.638 2.783z" fill="#F4F5F6" fill-rule="evenodd"/></svg>