<svg width="500" height="500" xmlns="http://www.w3.org/2000/svg"><path d="M158.623 111.047c41.058 1.661 42.72 31.62 36.614 42.159-8.986 15.513-38.836 28.847-63.25 34.392-24.412 5.545-33.84 37.757-66.02 49.926-22.235 8.479-60.068 2.89-29.948-47.1 24.413-40.54 81.556-80.995 122.604-79.377zm228.012 26.128c8.102-12.61-3.884-24.963-23.852-21.08-16.99 3.291-55.827 19.473-69.851 32.71-28.825 27.045 55.622 47.595 93.703-11.63zm-137.006 27.186c-15.534-1.08-23.129 8.23-18.34 14.423 7.768 9.99 32.731 20.497 42.72 17.196 20.163-6.721 12.612-28.976-24.401-31.63l.021.01zm-34.37-15.557c-10.54 10.54 2.222 24.964 9.99 14.424 7.767-10.54-3.355-21.09-9.99-14.424zm260.138 38.837c-22.74 46.614-90.974 111.525-143.63 138.149-40.421 20.421-82.656 15.534-113.725 18.857C171.806 349.61 98.75 385.155 68.2 389.04c-30.875 3.927-64.565-18.005-39.386-59.916 19.968-33.29 79.646-94.2 108.774-107.069 72.677-32.18 120.942.55 173.684-2.222 40.347-2.158 102.075-45.493 127.049-63.25 24.973-17.756 52.86-1.305 37.077 31.059zM316.74 260.329c-41.608 12.201-107.63 2.773-134.848 28.847-11.38 10.917-11.65 27.65 7.768 26.624 63.249-3.333 125.581-34.877 137.588-43.27 16.667-11.64 8.393-17.746-10.508-12.2zm77.112-90.424c49.139-23.398 31.188-35.006 14.423-27.185-20.216 9.429-31.76 35.438-14.423 27.185z" fill="#F4F5F6" fill-rule="evenodd"/></svg>