<svg width="500" height="500" xmlns="http://www.w3.org/2000/svg"><path d="M403.311 96.311c-5.126 59.492-125.595 16.92-158.492 114.545-5.326 15.779 4.655 29.293 13.985 30.633 31.666 4.565 37.88-61.484 109.798-58.839 65.216 2.41 82.97 53.006 83.332 112.316 1.123 186.7-177.533 198.818-164.707 128.965 6.667-36.412 34.184-32.608 34.184-63.26 0-9.981-10.652-18.876-19.311-17.318-30.797 5.525-27.3 63.26-106.556 63.26-63.26 0-144.254-34.42-146.5-160.486C44.37-15.57 414-27.853 403.311 96.31zM231.214 477.227c9.33 5.779 34.42 1.956 40.85-6.214 6.431-8.17 3.388-22.699-5.271-27.173-18.206-9.384-65.47 14.855-35.525 33.387h-.054zm-32.028-.78c20.977-4.637 1.974-27.499-19.601-27.499-28.768 0-17.011 35.652 19.655 27.5h-.054z" fill="#F4F5F6" fill-rule="evenodd"/></svg>