<svg width="321" height="256" xmlns="http://www.w3.org/2000/svg"><defs><linearGradient x1="0%" y1="81.858%" x2="100%" y2="18.142%" id="a"><stop stop-color="#01B4B4" offset="0%"/><stop stop-color="#280B58" offset="100%"/></linearGradient></defs><path d="M91.79 211.44c25.14 1.61 53.83-14.18 55.12-38 1.29-23.82-17.73-25.79-37.07-21.28-18.17 4.24-37.07-3.55-42.23-25.79-2.18-9.42-34.17 5.48-45.13-30.95-5.61-18.68 12.25-25.5 12.25-33.88 0-8.38-17.4-10.63-7.73-26.75C36.67 18.67 56 19.32 59.23 18c3.23-1.32 8.71-20.61 53.51-17.7C140.85 2.12 185 13.19 199.46 48c6.66 16 17.89 21.35 25.79 21.6 10.32.32 24.82-9 39 13.54 66.61 106-76.16 205.31-177.94 162.79-25.46-10.64-20.58-36.16 5.48-34.49zM4.43 55.74C-.32 57-1.69 65.73 2.5 69.28c4.19 3.55 18.7-.64 18.7-6.45 0-5.63-9.35-9.02-16.77-7.09zm3.22 78.33c-4.77 3-5.8 9-2.9 12.25s9.35 4.19 13.86.32c4.51-3.87 6.77-10.64 5.16-13.22-1.61-2.58-9.99-3.22-16.11.65h-.01zm32.56 21.28a6 6 0 005.16 8.06c5.16.64 8.7-6.77 6.77-10.32-1.93-3.55-9.67-2.58-11.93 2.26zm-.64-22.56c-2 1.43-1.29 6.45 1.61 6.77 2.9.32 6.45-2.9 5.48-5.48-.81-2.18-4.83-2.91-7.09-1.3v.01zm190.51-77.37c9.74 1.55 17.11-2.46 28.37.64 11.49 3.17 16.24 9.42 20.24 21.17 4.65 13.66 16 13.88 13.25-6.75-2.75-20.63-31.56-46.33-54.44-49.23-37.6-4.77-32.17 30.23-7.42 34.17zm66.4 46.1c.29 5.15 8.7 10 15.15 4.19 19.27-17.35 3.49-25.79-7.09-19.66-3.18 1.83-8.38 9.66-8.05 15.47h-.01zm-4.19 16.12c-3 2.3-2.58 13.54.32 15.47 2.9 1.93 9.67-.32 9.35-11-.15-5.21-5.47-7.7-9.66-4.48l-.01.01zM61.81 171.79c-1.55 3.33 1 9 7.09 8.06 6.09-.94 7.41-5.8 4.51-10-2.9-4.2-9.34-2.85-11.6 1.94z" fill="url(#a)" fill-rule="evenodd"/></svg>