<svg width="960" height="800" xmlns="http://www.w3.org/2000/svg"><defs><linearGradient x1="100%" y1="6.055%" x2="0%" y2="93.945%" id="a"><stop stop-color="#7C4490" offset="0%"/><stop stop-color="#01B4B4" offset="100%"/></linearGradient></defs><g fill="none" fill-rule="evenodd"><path fill="url(#a)" d="M586 281.278h960v900H586z" transform="translate(-586 -281.278)"/><path d="M791.199 188.89c20.327 97.676-76.958 127.916-115.385 122.877-56.56-7.415-119.067-65.637-152.595-117.968-33.529-52.331-145.177-46.096-205.323-110.803C276.105 38.352 270.69-55.217 453.684-28.602 602.076-7.05 770.736 91.278 791.199 188.89zm57.409 557.288c46.479 7.894 79.496-31.055 54.21-74.432-21.467-36.921-98.964-113.696-151.216-134.919-106.867-43.761-121.295 172.2 97.006 209.351zM673.354 449.036c-6.213-37.351-41.539-46.96-58.855-30.29-27.911 26.987-46.724 94.724-29.617 115.23 34.719 41.337 103.024 4.068 88.494-85l-.022.06zm29.478-94.221c-41.211-15.43-80.539 27.161-41.068 36.093 39.47 8.932 67.116-26.41 41.068-36.093zm35.87 643.746c-167.277-12.293-423.17-115.1-543.62-215.074-92.408-76.763-102.886-180.03-133.3-249.913-45.32-103.984-207.86-243.916-239.79-312.092-32.275-68.897 18.556-167.133 171.926-144.99C115.725 94.007 353.11 180.287 413.64 237.223 564.896 379.23 487.774 521.116 529.99 642.27c32.415 92.648 213.408 199.186 287.37 242.092 73.963 42.905 37.476 122.721-78.658 114.2zm-338.199-307.86c-66.172-86.772-76.68-249.775-179.351-290.624-42.98-17.068-98.067-2.985-82.51 41.617 50.654 145.282 193.326 263.606 228.412 284.36 48.67 28.82 63.516 4.061 33.45-35.352zm345.208 101.174c107.654 94.57 134.482 42.296 98.285 9.89-43.64-39.081-136.257-43.256-98.285-9.89z" opacity=".08" fill="#F4F5F6"/></g></svg>