<svg width="40" height="40" xmlns="http://www.w3.org/2000/svg"><defs><linearGradient x1="100%" y1="77.871%" x2="0%" y2="17.414%" id="a"><stop stop-color="#0388CC" offset="0%"/><stop stop-color="#01C599" offset="100%"/></linearGradient></defs><path d="M20 40C8.954 40 0 31.046 0 20S8.954 0 20 0s20 8.954 20 20-8.954 20-20 20zm7.001-19.782a1 1 0 00-.273-.904L16.12 8.707a1 1 0 10-1.414 1.414l10.096 10.097-10.096 10.096a1 1 0 001.414 1.414L26.728 21.12a1 1 0 00.273-.903z" fill="url(#a)" transform="matrix(-1 0 0 1 40 0)" fill-rule="evenodd"/></svg>