<svg width="40" height="40" xmlns="http://www.w3.org/2000/svg"><defs><linearGradient x1="100%" y1="77.871%" x2="0%" y2="17.414%" id="a"><stop stop-color="#0388CC" offset="0%"/><stop stop-color="#01C599" offset="100%"/></linearGradient></defs><path d="M1405 2825c-11.046 0-20-8.954-20-20s8.954-20 20-20 20 8.954 20 20-8.954 20-20 20zm7.001-19.782a1 1 0 00-.273-.904l-10.607-10.607a1 1 0 10-1.414 1.414l10.096 10.097-10.096 10.096a1 1 0 101.414 1.414l10.607-10.607a1 1 0 00.273-.903z" transform="translate(-1385 -2785)" fill="url(#a)" fill-rule="evenodd"/></svg>