<svg xmlns="http://www.w3.org/2000/svg" width="86" height="80"><g fill="#FFF"><path d="M80 48H6V5h74v43zM8.846 45.133h68.308V7.867H8.846v37.266zM21 53h56v4H21zm-5-1h4v5h-4zm-7 1h7v4H9z"/><path d="M33 41V13l28 14-28 14zm2.911-23.29v18.58L54.491 27l-18.58-9.29z"/><path d="M81.7 0H4.3A4.293 4.293 0 000 4.286V58.57a4.293 4.293 0 004.3 4.286h25.8v8.572H15.767V80h54.466v-8.571H55.9v-8.572h25.8c2.375 0 4.3-1.919 4.3-4.286V4.286A4.293 4.293 0 0081.7 0zM67.367 74.286v2.857H18.633v-2.857h48.734zm-14.334-2.857H32.967v-8.572h20.066v8.572zm30.1-12.858A1.43 1.43 0 0181.7 60H4.3a1.43 1.43 0 01-1.433-1.429V4.286c0-.79.641-1.429 1.433-1.429h77.4c.792 0 1.433.64 1.433 1.429V58.57z"/></g></svg>