<svg xmlns="http://www.w3.org/2000/svg" width="92" height="92"><g fill="#FFF"><path d="M29 5h58v4H29zM5 5h4v4H5zm6 0h4v4h-4zm6 0h4v4h-4zm58 24h-2.5v-2.5H70V24h5zm-43.5 0H29v-5h5v2.5h-2.5zm5.5 0h29v4H37zm0 5h29v4H37z"/><path d="M0 0v74.904h14.375v7.203h25.444L54.625 92v-9.893H69v-7.203h23V0H0zm66.125 79.226H51.75v7.392l-11.069-7.392H17.25V43.214h48.875v36.012zm-40.25-38.893V35.47l-8.337-9.542h8.337v-5.761h51.75V63.38H69V40.333H25.875zm63.25 31.69H69v-5.762h11.5V17.286H23v5.761H11.212L23 36.553v3.78h-8.625v31.69h-11.5V14.405h86.25v57.618zm0-60.5H2.875V2.882h86.25v8.643z"/><path d="M41.5 75l11.835-11.68a8.888 8.888 0 00.462-12.202c-3.107-3.56-8.47-4.153-12.297-1.36-3.828-2.793-9.19-2.2-12.297 1.36a8.888 8.888 0 00.462 12.203L41.5 75zm-9.785-22.347c2.421-2.383 6.339-2.383 8.76 0l1.025 1.011 1.025-1.011c2.42-2.387 6.341-2.387 8.76 0a6.056 6.056 0 010 8.644L41.5 70.954l-9.785-9.657a6.066 6.066 0 010-8.644z"/></g></svg>