<svg xmlns="http://www.w3.org/2000/svg" width="80" height="80"><g fill="#FFF"><path d="M80 11.081c0-.265-.07-.509-.175-.734a1.485 1.485 0 00-.338-.772L71.28 0H8.72L.512 9.576c-.19.221-.303.49-.337.77-.106.226-.175.47-.175.735v14.252h4V80h72V25.333h4V11.081zM9.947 2.667h60.106l5.715 6.666H4.232l5.715-6.666zm63.386 74.666H6.667v-52h66.666v52zm4-54.666H2.667V12h74.666v10.667z"/><path d="M56 31H24v14h32V31zm-2.667 11.2H26.667v-8.4h26.666v8.4zM60 51H20v19h40V51zm-2.667 16.286H22.667V53.714h34.666v13.572z"/><path d="M28.286 63h6.428c.71 0 1.286-.447 1.286-1 0-.553-.576-1-1.286-1h-6.428c-.71 0-1.286.447-1.286 1 0 .553.576 1 1.286 1zm8.099-4h15.23C52.38 59 53 58.553 53 58c0-.553-.62-1-1.385-1h-15.23C35.62 57 35 57.447 35 58c0 .553.62 1 1.385 1zM29 59c.26 0 .52-.11.71-.292.18-.191.29-.453.29-.714 0-.263-.11-.525-.29-.715a1.042 1.042 0 00-1.42 0c-.18.19-.29.452-.29.715 0 .271.11.523.29.714.19.181.44.292.71.292zm12.29 2.28c-.18.19-.29.451-.29.714 0 .261.11.523.29.714.19.181.45.292.71.292.26 0 .52-.11.71-.292.18-.191.29-.453.29-.714 0-.263-.11-.525-.29-.715-.37-.372-1.05-.372-1.42 0zM51.333 61h-1.666c-.92 0-1.667.447-1.667 1 0 .553.747 1 1.667 1h1.666c.92 0 1.667-.447 1.667-1 0-.553-.747-1-1.667-1z"/></g></svg>