<svg xmlns="http://www.w3.org/2000/svg" width="86" height="86"><path fill="#FFF" d="M43 0C19.252 0 0 19.252 0 43s19.252 43 43 43 43-19.252 43-43C85.973 19.263 66.737.027 43 0zm37.189 58.064l-12.229 2.11a64.169 64.169 0 002.25-15.74h12.888a39.867 39.867 0 01-2.909 13.63zM2.902 44.434H15.79a64.128 64.128 0 002.25 15.74l-12.23-2.11a39.867 39.867 0 01-2.909-13.63zm2.909-16.498l12.229-2.11a64.169 64.169 0 00-2.25 15.74H2.902a39.867 39.867 0 012.909-13.63zm38.622-4.922c5.15.066 10.288.535 15.366 1.403l5.06.873a61.525 61.525 0 012.486 16.277H44.433V23.014zm15.854-1.422a101.6 101.6 0 00-15.854-1.445v-17.2c8.218.79 15.355 8.313 19.4 19.263l-3.546-.618zm-18.72-1.445c-5.314.066-10.615.55-15.853 1.445l-3.548.613c4.046-10.952 11.183-18.478 19.4-19.264v17.206zm-15.365 4.27a98.578 98.578 0 0115.365-1.403v18.553H18.655a61.525 61.525 0 012.487-16.277l5.06-.873zm-7.547 20.016h22.912v18.553A98.604 98.604 0 0126.2 61.583l-5.06-.873a61.525 61.525 0 01-2.486-16.277zm7.058 19.975a101.94 101.94 0 0015.854 1.453v17.2c-8.218-.79-15.355-8.314-19.4-19.264l3.546.611zm18.72 1.453a101.93 101.93 0 0015.853-1.453l3.548-.613c-4.046 10.952-11.183 18.478-19.4 19.264V65.861zm15.365-4.278a98.578 98.578 0 01-15.365 1.403V44.433h22.912a61.525 61.525 0 01-2.487 16.277l-5.06.873zM70.21 41.567a64.169 64.169 0 00-2.25-15.741l12.229 2.11a39.867 39.867 0 012.909 13.63H70.21zm8.529-16.79l-11.722-2.023A39.525 39.525 0 0055.613 4.91 40.324 40.324 0 0178.74 24.777zM30.387 4.909a39.525 39.525 0 00-11.404 17.845L7.261 24.777A40.324 40.324 0 0130.387 4.909zM7.26 61.223l11.722 2.023A39.525 39.525 0 0030.387 81.09 40.324 40.324 0 017.26 61.223zm48.352 19.868a39.525 39.525 0 0011.404-17.845l11.722-2.023a40.324 40.324 0 01-23.126 19.868z"/></svg>