<svg xmlns="http://www.w3.org/2000/svg" width="86" height="48"><g fill="#FFF"><path d="M25 27h4v4h-4zm0 7h4v4h-4zm0 5h4v4h-4zm0-17h4v4h-4zm0-5h4v4h-4zm0-7h4v4h-4zm0-5h4v4h-4zM5 5h4v4H5zm72 0h4v4h-4zm0 34h4v4h-4zM5 39h4v4H5z"/><path d="M84.567 16.941c.791 0 1.433-.632 1.433-1.412V1.412C86 .632 85.358 0 84.567 0H1.433C.642 0 0 .632 0 1.412v14.117c0 .78.642 1.412 1.433 1.412 3.958 0 7.167 3.16 7.167 7.059 0 3.898-3.209 7.059-7.167 7.059C.642 31.059 0 31.69 0 32.47v14.117C0 47.368.642 48 1.433 48h83.134c.791 0 1.433-.632 1.433-1.412V32.471c0-.78-.642-1.412-1.433-1.412-3.958 0-7.167-3.16-7.167-7.059 0-3.898 3.209-7.059 7.167-7.059zm-9.94 8.463c.633 4.343 4.097 7.755 8.506 8.378v11.394H2.867V33.782c5.485-.775 9.293-5.783 8.506-11.186-.633-4.343-4.097-7.755-8.506-8.378V2.824h80.266v11.394c-5.485.775-9.293 5.783-8.506 11.186z"/><path d="M43 10a6 6 0 100 12 6 6 0 000-12zm0 9a3 3 0 110-6 3 3 0 010 6zm17 7a6 6 0 100 12 6 6 0 000-12zm0 9a3 3 0 110-6 3 3 0 010 6zm-20.88-.708l22.933-22.587L64.08 13.7 41.147 36.29z"/></g></svg>