<svg xmlns="http://www.w3.org/2000/svg" width="86" height="82"><g fill="#FFF"><path d="M84.663 76.314l-35.932-2.49a1.43 1.43 0 00-1.044.352 1.45 1.45 0 00-.49.995c-.301 2.14-2.116 3.728-4.256 3.728s-3.955-1.589-4.257-3.728a1.44 1.44 0 00-1.419-1.346L2.867 76.212v-2.894l40.131-2.792 41.465 2.894c.38.028.756-.099 1.043-.351.288-.253.464-.61.49-.995a1.455 1.455 0 00-.348-1.053 1.424 1.424 0 00-.985-.495l-40.232-2.793v-6.496a18.815 18.815 0 0113.53-1.824l20.869 5.022v1.446c0 .8.642 1.447 1.433 1.447a1.44 1.44 0 001.433-1.447v-2.59a1.444 1.444 0 00-1.103-1.447L58.62 56.606a21.535 21.535 0 00-15.623 2.156 21.535 21.535 0 00-15.622-2.156L5.403 61.844A1.444 1.444 0 004.3 63.291v7.032l-2.967.203A1.44 1.44 0 000 71.973v5.788a1.455 1.455 0 001.533 1.447l34.586-2.416C37.01 79.878 39.813 82 42.999 82c3.184 0 5.987-2.122 6.879-5.208l34.585 2.416c.38.027.756-.1 1.043-.351.288-.253.464-.61.49-.995a1.455 1.455 0 00-.348-1.054 1.424 1.424 0 00-.985-.494zM7.166 64.434l20.869-5.02a18.815 18.815 0 0113.53 1.823v6.496L7.166 70.121v-5.686zM30.143 40h25.714A7.143 7.143 0 0063 32.857V17.143a1.429 1.429 0 00-2.857 0v15.714a4.286 4.286 0 01-4.286 4.286H30.143a4.286 4.286 0 01-4.286-4.286V7.143a4.285 4.285 0 014.286-4.286h25.714a4.285 4.285 0 014.286 4.286v4.286a1.429 1.429 0 002.857 0V7.143A7.143 7.143 0 0055.857 0H30.143A7.143 7.143 0 0023 7.143v25.714A7.143 7.143 0 0030.143 40z"/><path d="M33.438 22.748c-.794 0-1.438.616-1.438 1.376v5.5c0 .476.255.917.676 1.17a1.487 1.487 0 001.41.054l20.132-9.627c.48-.235.782-.707.782-1.223 0-.516-.302-.99-.782-1.224L34.085 9.147a1.497 1.497 0 00-1.399.056c-.425.25-.685.691-.686 1.168v8.252c0 .76.644 1.375 1.438 1.375.794 0 1.438-.616 1.438-1.375v-6.024l15.473 7.399-15.473 7.399v-3.273c0-.76-.644-1.376-1.438-1.376zM41 45.333v9.334c0 .736.896 1.333 2 1.333s2-.597 2-1.333v-9.334c0-.736-.896-1.333-2-1.333s-2 .597-2 1.333zm10.345-2.048l-1.314 7.834c-.077.416-.009.852.19 1.207.198.355.51.598.861.674h.263c.635.015 1.187-.513 1.314-1.254l1.315-7.835c.145-.865-.326-1.707-1.051-1.88-.726-.173-1.433.388-1.578 1.254zM32.08 42.037c-.35.075-.661.318-.86.673-.198.354-.266.79-.19 1.206l1.314 7.83c.127.741.678 1.269 1.312 1.254h.263c.351-.076.662-.318.86-.673.199-.355.267-.79.19-1.207l-1.313-7.83a1.612 1.612 0 00-.564-1.027 1.14 1.14 0 00-1.011-.226zM57.663 52.77c.24.153.526.233.82.23a1.538 1.538 0 001.238-.61l8.95-12.186c.354-.4.429-.948.193-1.415-.237-.467-.744-.772-1.31-.788-.565-.016-1.092.26-1.36.713l-8.95 12.187c-.449.621-.262 1.456.419 1.869zm-33.384-.38c.275.379.74.607 1.238.61.294.003.58-.077.82-.23.681-.413.868-1.248.418-1.87l-8.949-12.186c-.268-.453-.795-.73-1.36-.713-.566.016-1.073.321-1.31.788a1.255 1.255 0 00.194 1.415l8.949 12.186zM66.3 54.44c.283.352.728.56 1.2.56.325 0 .64-.098.9-.28l6-4.2c.663-.464.797-1.341.3-1.96-.497-.619-1.437-.744-2.1-.28l-6 4.2c-.663.464-.797 1.342-.3 1.96zm-48.7.28c.26.182.575.28.9.28a1.54 1.54 0 001.2-.56c.497-.618.363-1.496-.3-1.96l-6-4.2c-.663-.464-1.603-.339-2.1.28-.497.619-.363 1.496.3 1.96l6 4.2z"/></g></svg>