<svg width="180" height="40" xmlns="http://www.w3.org/2000/svg" xmlns:xlink="http://www.w3.org/1999/xlink"><defs><path d="M5.681 9.317h4.344l-.83 2.577H5.681v14.42H2.469v-14.42H.198V9.317h2.271V6.235c0-2.056.828-3.531 2.07-4.418C6.212.61 8.932.68 10.656 1.525l-.669 2.564c-1.918-.734-4.306-.745-4.306 2.394v2.834zm29.243-.361c4.654 0 7.034 3.559 7.054 8.388.002.607-.006.528-.006 1.131H31.075c.178 1.643.523 2.983 1.565 3.991 1.764 1.709 4.455 2.09 8.01.326l.953 2.213c-2.649 1.766-7.639 2.313-10.56.054-1.93-1.382-3.172-4.075-3.172-7.324 0-5.476 3.049-8.779 7.053-8.779zm.033 2.509c2.444 0 3.754 2.362 3.754 4.627l-7.613.019c0-2.623 1.703-4.646 3.859-4.646zM18.806 9.357h2.697l.328 2.097c2.185-2.516 4.799-3.066 6.781-2.014l-1.088 2.825c-1.983-1.089-3.725-.092-5.544 1.756v12.293h-3.174V9.357zm-6.029 16.956h3.181V9.357h-3.181v16.956zm1.592-24.509c1.146 0 2.075.927 2.075 2.07 0 1.142-.929 2.07-2.075 2.07a2.073 2.073 0 01-2.075-2.07c0-1.143.929-2.07 2.075-2.07z" id="a"/></defs><g fill="#fff" fill-rule="evenodd"><g transform="translate(106)"><mask id="b" fill="#fff"><use xlink:href="#a"/></mask><use fill="#FFF" xlink:href="#a"/><path d="M5.681 9.317h4.344l-.83 2.577H5.681v14.42H2.469v-14.42H.198V9.317h2.271V6.235c0-2.056.828-3.531 2.07-4.418C6.212.61 8.932.68 10.656 1.525l-.669 2.564c-1.918-.734-4.306-.745-4.306 2.394v2.834zm29.243-.361c4.654 0 7.034 3.559 7.054 8.388.002.607-.006.528-.006 1.131H31.075c.178 1.643.523 2.983 1.565 3.991 1.764 1.709 4.455 2.09 8.01.326l.953 2.213c-2.649 1.766-7.639 2.313-10.56.054-1.93-1.382-3.172-4.075-3.172-7.324 0-5.476 3.049-8.779 7.053-8.779zm.033 2.509c2.444 0 3.754 2.362 3.754 4.627l-7.613.019c0-2.623 1.703-4.646 3.859-4.646zM18.806 9.357h2.697l.328 2.097c2.185-2.516 4.799-3.066 6.781-2.014l-1.088 2.825c-1.983-1.089-3.725-.092-5.544 1.756v12.293h-3.174V9.357zm-6.029 16.956h3.181V9.357h-3.181v16.956zm1.592-24.509c1.146 0 2.075.927 2.075 2.07 0 1.142-.929 2.07-2.075 2.07a2.073 2.073 0 01-2.075-2.07c0-1.143.929-2.07 2.075-2.07z" mask="url(#b)"/></g><path d="M62.115 32.525c-5.817 4.293-14.251 6.576-21.514 6.576-10.178 0-19.344-3.762-26.28-10.026-.545-.491-.059-1.163.596-.782 7.483 4.354 16.737 6.977 26.295 6.977 6.448 0 13.535-1.338 20.057-4.105.984-.417 1.808.649.846 1.36" fill="#FFF"/><path d="M64.536 29.761c-.745-.953-4.919-.451-6.794-.227-.568.068-.656-.428-.144-.788 3.33-2.338 8.786-1.663 9.42-.88.639.79-.168 6.26-3.288 8.871-.48.401-.937.187-.724-.343.702-1.754 2.275-5.68 1.53-6.633m-6.662-17.537V9.951a.561.561 0 01.576-.575l10.186-.001c.326 0 .588.237.588.573v1.949c-.004.327-.279.754-.767 1.431l-5.277 7.533c1.958-.046 4.031.248 5.81 1.248.401.226.509.559.541.887v2.425c0 .334-.366.721-.751.519-3.135-1.642-7.295-1.821-10.762.021-.354.188-.725-.193-.725-.528v-2.304c0-.37.007-1 .379-1.562l6.113-8.77-5.322-.001c-.326 0-.587-.232-.589-.572M20.719 26.418H17.62a.584.584 0 01-.555-.524l.003-15.904c0-.319.267-.572.598-.572l2.886-.001a.582.582 0 01.563.534v2.076h.058c.752-2.008 2.169-2.945 4.078-2.945 1.938 0 3.153.937 4.021 2.945.753-2.008 2.459-2.945 4.282-2.945 1.301 0 2.719.535 3.586 1.74.984 1.339.782 3.28.782 4.987l-.003 10.037a.585.585 0 01-.598.572h-3.095a.581.581 0 01-.556-.571l-.001-8.432c0-.668.058-2.342-.087-2.978-.231-1.071-.925-1.373-1.822-1.373-.752 0-1.533.502-1.852 1.306-.317.803-.289 2.141-.289 3.045v8.431a.584.584 0 01-.597.572h-3.096a.581.581 0 01-.556-.571l-.003-8.432c0-1.773.289-4.383-1.909-4.383-2.228 0-2.141 2.543-2.141 4.383v8.431a.585.585 0 01-.598.572m57.302-14.089c-2.285 0-2.43 3.111-2.43 5.053 0 1.941-.028 6.091 2.402 6.091 2.401 0 2.516-3.347 2.516-5.388 0-1.338-.058-2.945-.463-4.217-.348-1.105-1.042-1.539-2.025-1.539zm-.028-3.247c4.599 0 7.086 3.95 7.086 8.969 0 4.853-2.747 8.703-7.086 8.703-4.513 0-6.972-3.951-6.972-8.87 0-4.953 2.487-8.802 6.972-8.802zm13.051 17.336h-3.088a.581.581 0 01-.555-.571l-.006-15.91a.587.587 0 01.596-.519l2.874-.001a.589.589 0 01.551.445v2.433h.058c.868-2.176 2.083-3.213 4.223-3.213 1.388 0 2.749.502 3.616 1.874.81 1.272.81 3.414.81 4.953v10.009a.588.588 0 01-.594.5h-3.106a.583.583 0 01-.552-.5v-8.636c0-1.74.203-4.284-1.938-4.284-.753 0-1.446.502-1.793 1.271-.434.971-.493 1.941-.493 3.013v8.564a.593.593 0 01-.603.572m-38.166-.04a.64.64 0 01-.732.073c-1.029-.856-1.213-1.251-1.776-2.066-1.701 1.733-2.906 2.253-5.109 2.253-2.609 0-4.638-1.61-4.638-4.83 0-2.515 1.362-4.226 3.304-5.064 1.682-.738 4.03-.873 5.828-1.074v-.403c0-.738.057-1.609-.377-2.247-.378-.57-1.102-.805-1.74-.805-1.182 0-2.232.605-2.491 1.861-.053.279-.257.556-.538.57l-3.004-.326c-.253-.057-.535-.26-.462-.648.691-3.643 3.981-4.744 6.929-4.744 1.509 0 3.479.402 4.668 1.543 1.508 1.409 1.363 3.287 1.363 5.334v4.827c0 1.453.603 2.089 1.169 2.872.198.282.242.617-.01.823-.632.531-1.757 1.508-2.376 2.058l-.008-.007zm-3.123-7.555c0 1.208.028 2.213-.581 3.287-.492.872-1.275 1.409-2.145 1.409-1.188 0-1.884-.906-1.884-2.248 0-2.639 2.368-3.119 4.61-3.119v.671zm-37.5 7.555a.64.64 0 01-.732.073c-1.03-.856-1.214-1.251-1.776-2.066-1.702 1.733-2.906 2.253-5.109 2.253-2.609 0-4.638-1.61-4.638-4.83 0-2.515 1.362-4.226 3.304-5.064 1.681-.738 4.03-.873 5.826-1.074v-.403c0-.738.059-1.609-.376-2.247-.377-.57-1.102-.805-1.739-.805-1.182 0-2.234.605-2.491 1.861-.053.279-.257.556-.538.57L.982 14.32c-.254-.057-.536-.26-.462-.648.69-3.643 3.98-4.744 6.929-4.744 1.508 0 3.479.402 4.668 1.543 1.507 1.409 1.363 3.287 1.363 5.334v4.827c0 1.453.603 2.089 1.169 2.872.197.282.242.617-.01.823-.633.531-1.758 1.508-2.377 2.058l-.007-.007zM9.13 18.823c0 1.208.03 2.213-.579 3.287-.492.872-1.276 1.409-2.145 1.409-1.188 0-1.884-.906-1.884-2.248 0-2.639 2.368-3.119 4.608-3.119v.671zm164.088 7.368L180 9.387h-3.334l-2.963 7.719c-.624 1.61-1.223 3.16-1.747 4.77-.522-1.591-1.118-3.168-1.74-4.77l-2.974-7.719h-3.346l6.806 16.804h2.516" fill="#FFF"/><path fill="#FFF" d="M163.128 11.915h-4.49v14.276h-3.096V11.915h-4.888V9.387h13.281l-.807 2.528"/></g></svg>