<svg width="46" height="22" xmlns="http://www.w3.org/2000/svg"><g fill="#FFF" fill-rule="evenodd"><text font-family="HelveticaNeue-Medium, Helvetica Neue" font-size="16" font-weight="400"><tspan x="20.308" y="19">iOS</tspan></text><path d="M15.033 11.688c.031 3.33 2.935 4.437 2.967 4.451-.025.078-.464 1.58-1.53 3.13-.921 1.34-1.877 2.675-3.384 2.702-1.48.028-1.956-.873-3.648-.873-1.692 0-2.22.846-3.622.9-1.454.055-2.561-1.449-3.49-2.784C.427 16.483-1.024 11.496.924 8.13 1.892 6.458 3.622 5.4 5.5 5.372c1.427-.027 2.775.956 3.648.956.872 0 2.51-1.182 4.232-1.008.72.03 2.744.29 4.043 2.182-.105.065-2.414 1.402-2.389 4.186m-2.782-8.175c.772-.93 1.292-2.225 1.15-3.513-1.113.045-2.458.738-3.256 1.667-.716.823-1.342 2.14-1.173 3.403 1.24.096 2.507-.627 3.28-1.557" fill-rule="nonzero"/></g></svg>