<svg width="97" height="20" fill="#fff" xmlns="http://www.w3.org/2000/svg"><path d="M24.914 10.04c0-2.107 1.488-3.718 3.595-3.718 1.673 0 2.602.991 3.037 1.983l-1.178.558c-.31-.805-.991-1.301-1.92-1.301-1.116 0-2.17.991-2.17 2.541 0 1.488 1.054 2.542 2.17 2.542.991 0 1.673-.496 2.045-1.302l1.178.496c-.434.992-1.425 1.983-3.099 1.983-2.17-.063-3.658-1.675-3.658-3.782zm8.987-3.47l-.062.99h.062c.372-.619 1.24-1.177 2.231-1.177 1.797 0 2.665 1.178 2.665 2.913v4.276h-1.301v-4.09c0-1.424-.744-1.92-1.735-1.92-1.115 0-1.86 1.054-1.86 2.17v3.842H32.6V3.408h1.3V6.57zm6.26 7.003V6.569H41.4v1.116h.062c.31-.806 1.302-1.302 2.046-1.302.433 0 .682.063.991.186l-.495 1.24a2.216 2.216 0 00-.682-.124c-.868 0-1.797.743-1.797 2.045v3.843H40.16zm11.527-3.533c0 2.107-1.487 3.718-3.594 3.718-2.107 0-3.595-1.611-3.595-3.718s1.488-3.718 3.595-3.718 3.594 1.611 3.594 3.718zm-1.301 0c0-1.611-1.116-2.541-2.293-2.541-1.178 0-2.293.929-2.293 2.541 0 1.612 1.115 2.541 2.293 2.541 1.177 0 2.293-.93 2.293-2.541zm2.355-3.47h1.24v.99h.062c.372-.681 1.3-1.177 2.169-1.177 1.115 0 1.86.496 2.23 1.364.496-.806 1.364-1.364 2.417-1.364 1.674 0 2.48 1.178 2.48 2.913v4.276h-1.364v-4.09c0-1.424-.559-1.92-1.55-1.92-1.054 0-1.797 1.054-1.797 2.17v3.842h-1.302V9.483c0-1.425-.558-1.921-1.55-1.921-1.054 0-1.797 1.054-1.797 2.17v3.842h-1.3V6.57h.063zm11.528 3.47c0-1.983 1.363-3.718 3.408-3.718s3.408 1.487 3.408 3.718v.247H65.57c.062 1.488 1.115 2.293 2.23 2.293.744 0 1.55-.31 1.922-1.177l1.177.496c-.433.991-1.425 1.92-3.037 1.92-2.167-.06-3.592-1.672-3.592-3.779zm3.408-2.48c-.992 0-1.735.683-1.983 1.674h4.028c-.062-.62-.558-1.673-2.045-1.673zm4.152 2.48c0-2.107 1.488-3.718 3.595-3.718 1.673 0 2.603.991 3.037 1.983l-1.178.496c-.31-.806-.991-1.301-1.92-1.301-1.116 0-2.17.991-2.17 2.54 0 1.488 1.054 2.542 2.17 2.542.991 0 1.673-.495 2.045-1.301l1.178.496c-.434.991-1.425 1.983-3.099 1.983-2.17-.001-3.658-1.613-3.658-3.72zm7.438 1.426c0-1.55 1.425-2.417 3.037-2.417.93 0 1.611.248 1.86.434v-.249c0-1.054-.869-1.673-1.798-1.673-.743 0-1.425.372-1.673.992l-1.178-.496c.247-.62 1.054-1.674 2.851-1.674 1.674 0 3.099.992 3.099 2.975v4.214h-1.24v-.992h-.062c-.372.559-1.115 1.178-2.293 1.178-1.426.001-2.603-.867-2.603-2.292zm4.896-.93s-.558-.434-1.673-.434c-1.364 0-1.921.744-1.921 1.364 0 .743.743 1.115 1.425 1.115 1.115 0 2.17-.868 2.17-2.045zm2.107 1.24l1.178-.496c.372.868 1.054 1.301 1.86 1.301.805 0 1.363-.372 1.363-.991 0-.372-.186-.743-.929-.93l-1.425-.31c-.62-.185-1.86-.681-1.86-1.92 0-1.24 1.302-2.046 2.727-2.046 1.178 0 2.23.558 2.665 1.611l-1.115.496c-.248-.682-.93-.93-1.612-.93-.743 0-1.363.31-1.363.869 0 .433.372.682.93.805l1.363.31c1.364.31 1.92 1.178 1.92 2.046 0 1.239-1.115 2.169-2.726 2.169-1.61 0-2.604-.993-2.976-1.984zm7.438-.372V7.747h-1.24V6.569h1.24V4.462h1.3V6.57h1.674v1.178H95.01v3.533c0 .806.31 1.115.93 1.115.248 0 .433 0 .619-.123l.433 1.115c-.31.124-.62.186-1.054.186-1.424.061-2.23-.744-2.23-2.17zm-74.93-5.392h-6.693c1.239.806 2.107 2.17 2.107 3.78 0 .31-.063.682-.124.992v.063c-.063.495-.248.929-.496 1.363l-4.214 7.375h.372a9.774 9.774 0 009.793-9.792c-.001-1.364-.25-2.666-.745-3.78zm-8.986 8.18c-1.24 0-2.417-.558-3.223-1.363a6.22 6.22 0 01-.805-.992l-.124-.124-4.154-7.127A9.834 9.834 0 000 9.793c0 5.02 3.718 9.11 8.553 9.667l3.346-5.826c-.619.372-1.363.559-2.106.559zM9.793 0C6.57 0 3.719 1.55 1.922 3.966l3.347 5.702c.062.062.062.186.062.247V9.73c0-2.17 1.611-4.029 3.657-4.338h.062c.372-.124.744-.124 1.116-.124h8.242C16.795 2.169 13.511 0 9.793 0zm3.532 9.793a3.531 3.531 0 01-3.533 3.533 3.531 3.531 0 01-3.533-3.533c0-1.922 1.612-3.533 3.534-3.533 1.92-.063 3.532 1.55 3.532 3.533z"/></svg>