<svg version="1.2" baseProfile="tiny" xmlns="http://www.w3.org/2000/svg" viewBox="0 0 30 30"><path fill="#4A4A4A" d="M27 21.5c0-.1 0-.1 0 0 0-.1 0-.1 0 0v-.4L23.4 15l3.5-6.1v-.8s0-.1-.1-.1v-.1l-.1-.1h-7.4l-3.5-6.1v-.1l-.1-.1-.1-.1h-1l-.1.1-.1.1v.1l-3.5 6.1H3.5s-.1 0-.1.1l-.1.1v.1s0 .1-.1.1 0 .1 0 .1V9l3.4 6-3.5 6.1v.8s0 .1.1.1h7.6l3.5 6.1v.1l.1.1.1.1h1l.1-.1.1-.1v-.1l3.5-6.1h7.5l.1-.1v-.1s0-.1.1-.1v-.2c.1.1.1 0 .1 0zm-2.9-2.2l-2.4-1.4.8-1.4 1.6 2.8zm-9.9-5.7l-3.7-2.2 1.2-2.2h2.5v4.4zm1.6-4.3h2.5l1.2 2.2-3.7 2.2V9.3zM13.4 15l-3.7 2.2L8.4 15l1.2-2.2 3.8 2.2zm.8 1.4v4.3h-2.5l-1.2-2.2 3.7-2.1zm1.6 0l3.7 2.2-1.2 2.2h-2.5v-4.4zm.8-1.4l3.7-2.2 1.2 2.2-1.2 2.2-3.7-2.2zm5.1-3l2.4-1.4-1.6 2.8-.8-1.4zm1.6-2.7l-2.4 1.4-.8-1.4h3.2zm-7.5-1.6V5l1.6 2.8h-1.6zM14.2 5v2.8h-1.6L14.2 5zm-5.1 5.7L6.7 9.3h3.2l-.8 1.4zm-3.2 0L8.3 12l-.8 1.4-1.6-2.7zm2.4 7.2l-2.4 1.4 1.6-2.8.8 1.4zm-1.6 2.8l2.4-1.4.8 1.4H6.7zm7.5 1.6V25l-1.6-2.8h1.6zm1.6 2.7v-2.8h1.6L15.8 25zm5.1-5.7l2.4 1.4h-3.2l.8-1.4z"/></svg>