<svg width="50" height="50" xmlns="http://www.w3.org/2000/svg"><g fill="none" fill-rule="evenodd"><g transform="translate(25 20)" fill="#FFF"><path d="M0 14.758C.084 11.013 3.503 8 7.709 8c4.258 0 7.71 3.089 7.71 6.899v.018a13.852 13.852 0 01-7.59 2.25c-2.903 0-5.599-.889-7.829-2.409z"/><circle cx="8.174" cy="4.174" r="4.174"/></g><g transform="translate(9 13)" fill="#FFF"><path d="M-.387 18.107c.411-4.631 4.717-8.274 9.968-8.274 5.523 0 10 4.03 10 9 0 .203-.007.405-.022.605a17.917 17.917 0 01-8.978 2.395c-4.128 0-7.931-1.39-10.968-3.726z"/><circle cx="10.5" cy="5.5" r="5.5"/></g><path d="M25 49c13.255 0 24-10.745 24-24S38.255 1 25 1 1 11.745 1 25s10.745 24 24 24z" stroke="#FFF" stroke-width="2"/></g></svg>