<svg width="50" height="50" xmlns="http://www.w3.org/2000/svg"><g fill="none" fill-rule="evenodd"><path d="M25 49c13.255 0 24-10.745 24-24S38.255 1 25 1 1 11.745 1 25s10.745 24 24 24z" stroke="#FFF" stroke-width="2"/><g fill="#FFF"><path d="M36.75 34.564H13.866a.503.503 0 01-.497-.51V18.66c0-.282.221-.51.497-.51H36.75c.275 0 .497.228.497.51v15.396c0 .28-.222.509-.497.509zm-22.387-1.019h21.89V19.168h-21.89v14.377z"/><path d="M28.37 26.422l-5.129-2.78c-.06-.032-.11-.036-.153-.01-.042.025-.064.07-.064.135v5.544c0 .066.022.11.064.136.043.025.094.022.153-.01l5.13-2.782c.059-.032.089-.07.089-.116 0-.045-.03-.084-.09-.117"/></g></g></svg>