<svg width="50" height="50" xmlns="http://www.w3.org/2000/svg"><g fill="none" fill-rule="evenodd"><path d="M25 49c13.255 0 24-10.745 24-24S38.255 1 25 1 1 11.745 1 25s10.745 24 24 24z" stroke="#FFF" stroke-width="2"/><g fill="#FFF"><path d="M17.198 34.872v-7.895c.527-6.049 6.81-7.257 6.872-7.269l9.777-.009a.645.645 0 110 1.288h-9.66c-.102.03-5.26 1.044-5.698 6.044l.003 7.84c0 .356-.29.644-.647.644a.645.645 0 01-.647-.643z"/><path d="M28.534 13.764c.159 0 .318.061.437.184l6.338 6.478-6.342 6.319a.613.613 0 01-.865 0 .609.609 0 010-.864l5.487-5.466-5.494-5.616a.607.607 0 01.44-1.035"/></g></g></svg>