<svg width="228" height="96" xmlns="http://www.w3.org/2000/svg"><defs><linearGradient x1="84.822%" y1="58.184%" x2="20.695%" y2="41.816%" id="a"><stop stop-color="#3089A4" offset="0%"/><stop stop-color="#784892" offset="100%"/></linearGradient></defs><path d="M183.003 2.352a6.98 6.98 0 00-9.956 0 7.17 7.17 0 00-2.071 5.06c0 1.83.69 3.662 2.071 5.059l25.228 25.498-191.28-.426a6.926 6.926 0 00-4.906 2.175C.817 41.056.036 42.908 0 45a7.35 7.35 0 002.11 5.02 7.04 7.04 0 004.91 2.115l190.053.428-24.026 24.283a7.17 7.17 0 00-2.071 5.06c0 1.83.69 3.662 2.071 5.059a6.98 6.98 0 009.956 0l36.852-37.247a7.17 7.17 0 002.071-5.06 7.17 7.17 0 00-2.071-5.059L183.003 2.352z" transform="translate(3 3)" fill="#FFF" stroke="url(#a)" stroke-width="6"/></svg>