<svg width="64" height="152" xmlns="http://www.w3.org/2000/svg"><defs><linearGradient x1="84.822%" y1="58.184%" x2="20.695%" y2="41.816%" id="a"><stop stop-color="#3089A4" offset="0%"/><stop stop-color="#784892" offset="100%"/></linearGradient></defs><path d="M122.002 1.568a4.654 4.654 0 00-6.637 0 4.78 4.78 0 00-1.381 3.373c0 1.22.46 2.441 1.38 3.373l16.82 16.999-127.52-.285a4.617 4.617 0 00-3.272 1.45C.545 27.372.024 28.606 0 30a4.9 4.9 0 001.406 3.346 4.694 4.694 0 003.274 1.41l126.702.286-16.017 16.189a4.78 4.78 0 00-1.381 3.373c0 1.22.46 2.441 1.38 3.372a4.654 4.654 0 006.638 0l24.568-24.83a4.78 4.78 0 001.381-3.374 4.78 4.78 0 00-1.381-3.372L122.002 1.568z" transform="rotate(90 30 32)" fill="#FFF" stroke="url(#a)" stroke-width="4"/></svg>