<svg width="24" height="24" xmlns="http://www.w3.org/2000/svg"><path d="M17.4.6a1.2 1.2 0 011.194 1.077l.006.123v.6h3.6a1.2 1.2 0 011.2 1.2v18.6a1.2 1.2 0 01-1.2 1.2H1.8a1.2 1.2 0 01-1.2-1.2V3.6a1.2 1.2 0 011.2-1.2h3.3v-.6a1.2 1.2 0 012.394-.123L7.5 1.8l-.001.6H10.8v-.6a1.2 1.2 0 012.394-.123l.006.123v.6h3v-.6A1.2 1.2 0 0117.4.6zM5.1 4.8H3V21h18V4.8h-2.4v.6a1.2 1.2 0 01-2.394.123L16.2 5.4v-.6h-3v.6a1.2 1.2 0 01-2.394.123L10.8 5.4v-.6H7.499l.001.6a1.2 1.2 0 01-2.394.123L5.1 5.4v-.6zM17 16a1 1 0 110 2 1 1 0 010-2zm-5 0a1 1 0 110 2 1 1 0 010-2zm-5 0a1 1 0 110 2 1 1 0 010-2zm10-5a1 1 0 110 2 1 1 0 010-2zm-5 0a1 1 0 110 2 1 1 0 010-2zm-5 0a1 1 0 110 2 1 1 0 010-2z" fill="#01B4B4" fill-rule="evenodd"/></svg>