<svg id="Layer_1" xmlns="http://www.w3.org/2000/svg" viewBox="0 0 300 150"><style>.st2{fill:none}</style><path d="M204.3 116h90.3v33.6h-90.3z" fill="#7d4591"/><path d="M211.7 122.1h8.3c.8 0 1.6.1 2.4.3.8.2 1.5.5 2.1.9.6.4 1.1 1 1.5 1.7.4.7.6 1.5.6 2.5 0 1.2-.3 2.2-1 3-.7.8-1.6 1.3-2.7 1.7v.1c.7.1 1.3.3 1.9.6.6.3 1.1.7 1.5 1.1.4.5.7 1 .9 1.6.2.6.3 1.2.3 1.9 0 1.2-.2 2.1-.7 2.9-.5.8-1.1 1.4-1.8 1.9-.8.5-1.6.8-2.6 1-1 .2-2 .3-3 .3h-7.7v-21.5zm3.8 8.7h3.5c1.3 0 2.2-.2 2.8-.7.6-.5.9-1.1.9-1.9 0-.9-.3-1.6-1-2.1s-1.7-.7-3.1-.7h-3.1v5.4zm0 9.4h3.5c.5 0 1 0 1.6-.1.6-.1 1.1-.2 1.5-.4.5-.2.8-.5 1.1-.9.3-.4.5-1 .5-1.7 0-1.1-.4-1.9-1.1-2.3-.7-.4-1.9-.7-3.4-.7h-3.6v6.1zm17-18.1h14.1v3.4h-10.3v5.2h9.8v3.4h-9.8v5.8h10.9v3.4h-14.7v-21.2zm24 3.4H250v-3.4h16.9v3.4h-6.5v17.9h-3.8v-17.9zm18.3-3.4h3.3l9.2 21.3H283l-2-4.9h-9.2l-1.9 4.9h-4.2l9.1-21.3zm4.9 13.2l-3.3-8.7-3.3 8.7h6.6z" fill="#fff"/><path class="st2" d="M3.2.5h293.6v145.7H3.2z"/><path class="st2" d="M3.2.5h293.6v145.7H3.2z"/><path d="M39.4 146.6c-23.2 0-36.6-8-36.6-21.8 0-11.2 14.3-16.9 20-18.7l-11-1.9v-8l18.7-15.8C16.7 77.5 9.4 70.2 9.4 59c0-12.2 11.2-25.3 35.7-25.3 5.5 0 10.6.6 15.3 1.8C66.2 25.4 73.7 20 82 20c.6 0 1.5 0 2.1.2h.7c5.4.6 9.3 4.7 9.3 9.7 0 5.7-4.5 9.7-10.7 9.7-5.7 0-9.7-3.4-10.2-8.6-3.1 1.3-6.2 3.4-8.1 5.7 11.4 4.1 17.7 11.9 17.7 21.9 0 11.2-12.8 23.2-36.6 23.2-3.6 0-7.3-.2-10.6-.5l-1.3-.2-2.4 7.1 20.5 1.3c23.7 1.8 34.9 9.7 34.9 25.2-.1 15-19.8 31.9-47.9 31.9zm-12.2-39.8c-3.1 3.7-4.5 8-4.5 12.3 0 12.8 9.6 18.5 18.4 18.5 14.9 0 21.6-7.8 21.6-15.6 0-6.8-3.9-9.6-17.1-12l-18.4-3.2zm17.4-66.6c-6.5 0-10.2 6.5-10.2 17.2 0 8.8 3.7 17.7 11 17.7 6.7 0 10.1-8.1 10.1-15.9 0-11.6-4.2-19-10.9-19zm192.1 71.6c-10.6 0-21.1-6-21.1-19.3 0-14 14.8-22.7 38.3-22.7h6.5l-.2-14.5c0-9.6-4.7-15.3-13.2-15.6h-1.1c-5.7 0-9.7 1.1-12.5 2.3 6 .5 10.2 4.9 10.2 10.7 0 6.7-5 11.4-11.9 11.4-7 0-11.7-4.4-11.7-11 0-1.8.3-4.4 2.6-7.6 9.3-11.9 28.9-12.5 32.8-12.5 19.2 0 30.2 9.3 30.2 25.5v43.1l9.4 4.7v4.1l-30.7.2-3.7-10.9c-1.5 1.7-11.6 12.1-23.9 12.1zM256 75.6c-5 0-13.6 1.5-13.6 11.4 0 7.1 6 9.6 11.7 9.6 2.1 0 4.2-.3 6.2-1V75.2l-4.3.4zm-147.5 36.2c-10.6 0-21.1-6-21.1-19.3 0-14 14.8-22.7 38.3-22.7h6.5l-.2-14.5c0-9.6-4.7-15.3-13.2-15.6h-1.1c-5.7 0-9.7 1.1-12.5 2.3 6 .5 10.2 4.9 10.2 10.7 0 6.7-5 11.4-11.9 11.4-7 0-11.7-4.4-11.7-11 0-1.8.3-4.4 2.6-7.6 9.3-11.9 28.9-12.5 32.8-12.5 19.2 0 30.2 9.3 30.2 25.5v43.1l9.4 4.7v4.1l-30.7.2-3.7-10.9c-1.4 1.7-11.4 12.1-23.9 12.1zM128 75.6c-5 0-13.6 1.5-13.6 11.4 0 7.1 6 9.6 11.7 9.6 2.1 0 4.2-.3 6.2-1V75.2l-4.3.4zm42.2 34.9v-3.4l8.4-2.1V44.9h-12.2V41l26.6-7.6h11v71.2l8.8 2.3v3.6h-42.6zm21.9-82.4c-8.6 0-14.5-5.5-14.5-13.5S183.8 1 192.1 1c8.4 0 14.9 5.8 14.9 13.6s-6.3 13.5-14.9 13.5z" fill="#33bfc2"/></svg>