<svg width="140" height="140" xmlns="http://www.w3.org/2000/svg"><path d="M54.661 62.62a30.33 30.33 0 01-1.368 1.501 22.068 22.068 0 01-2.265 2.026 50.215 50.215 0 01-2.122 2.782c-1.737 2.089-3.508 3.672-5.318 4.746-2.265 1.347-4.741 2.021-7.439 2.021-.561 0-1.425-.101-2.601-.308a35.673 35.673 0 01-3.734-.847c-.187-.053-.374-.11-.552-.164-2.841-.87-4.262-1.78-4.262-2.733a.97.97 0 01.187-.583c.183-.255.475-.385.869-.385.168 0 .643.13 1.416.39.772.255 1.358.385 1.756.385h.03a6.556 6.556 0 001.665-.23c.297-.4.729-.82 1.305-1.262.427-.332.878-.635 1.353-.9.418-.23.725-.375.912-.423-.254 0-.604-.063-1.055-.193-.452-.13-.802-.192-1.061-.192.974-.15 1.881-.76 2.726-1.848.326-.414.686-.953 1.08-1.613.456-.789.801-1.381 1.037-1.78.873-1.502 1.665-2.58 2.375-3.24.47-.428.97-.755 1.503-.976.148-.101.302-.188.456-.265a4.006 4.006 0 00-.696-.265 3.105 3.105 0 00-.84-.12c0-.063.033-.13.096-.193.067-.067.096-.13.096-.192.825-.347 1.622-.886 2.395-1.622.523-.496 1.17-1.237 1.939-2.214.926-1.184 1.555-1.959 1.88-2.325.75-.832 1.498-1.482 2.247-1.944a5.844 5.844 0 00-.576-.265 1.67 1.67 0 00-.566-.115c.077-.004.13-.033.158-.096l.024-.096c.932-.712 1.795-1.728 2.592-3.052.317-.524.95-1.747 1.896-3.667.749-1.516 1.416-2.647 2.006-3.398.85-1.078 1.824-1.819 2.928-2.223-.082 0-.14-.034-.168-.096l-.024-.097-1.152-.577c.638-.308 1.325-.804 2.05-1.492.388-.37 1.017-1.035 1.886-2.002.796-.886 1.425-1.536 1.886-1.94.72-.63 1.406-1.068 2.064-1.314l-1.349-.004c0-.068.034-.13.096-.193.067-.067.096-.13.096-.193a37.63 37.63 0 014.8-2.011 30.048 30.048 0 013.844-1.054l.158-.082c.605-.101 1.406-.578 2.41-1.44.998-.86 2.068-2.497 3.2-4.913 1.133-2.416 2.353-4.076 3.663-4.986 1.3-.914 2.702-1.362 4.209-1.348 1.497.015 2.788.198 3.859.544 1.147.376 2.174.91 3.086 1.603 2.174 1.656 3.263 3.836 3.263 6.55-.864 6.122-2.567 10.347-5.106 12.687.139.207.273.428.403.664.379.683.773 1.607 1.166 2.762.226.66.562 1.67 1.008 3.042.202.578.413 1.102.62 1.579.215.495.436.943.657 1.328h-.288c-.072 0-.226-.125-.466-.38-.293-.313-.49-.51-.59-.583h-.192c.638 2.638 1.277 4.572 1.915 5.79.912 1.762 2.193 3.042 3.854 3.855v.193h-2.117c1.18.977 2.721 1.92 4.632 2.825a34.895 34.895 0 005.385 2.036l.561.158.024.097c.034.067.087.096.173.096-.106.106-.24.192-.413.265-.182.077-.37.12-.552.12.543.366 1.32.794 2.337 1.29 1.373.669 2.218 1.087 2.535 1.26 1.924 1.045 3.278 2.248 4.06 3.615-.37-.029-.792-.159-1.262-.39-.509-.25-.826-.375-.94-.375h-.202a13.97 13.97 0 01.595.703l.043.057c1.43 1.834 2.15 3.74 2.15 5.723 0 .803-.22 1.588-.658 2.358-.398.693-.945 1.328-1.65 1.9a8.224 8.224 0 01-2.156 1.262c-.772.303-1.497.452-2.174.452-.499 0-.83-.033-.993-.106-.183-.077-.399-.298-.643-.664.139-.135.364-.265.672-.38.177-.063.46-.159.835-.28.662-.25.998-.644.998-1.169 0-.288-.202-.577-.605-.861-.35-.255-.902-.544-1.67-.876a74.762 74.762 0 00-2.524-1.006 117.8 117.8 0 01-3.173-1.275c-2.812-1.194-5.289-2.484-7.434-3.86a36.057 36.057 0 01-3.958-2.955m-3.525-3.533v-.192c-.014.057-.024.115-.038.173v.005c-.187.693-.523 1.458-.994 2.295-.019.025-.508.828-1.482 2.416-.61.982-1.052 1.834-1.33 2.551a7.92 7.92 0 00-.547 2.21 6.269 6.269 0 00-.034.673c0 1.391.562 2.873 1.685 4.447.35.496.931 1.223 1.728 2.185.038.043.077.092.115.135.245.188.552.419.912.688 1.032.79 1.747 1.492 2.145 2.108a.201.201 0 01-.1-.029c-.063-.029-.092-.086-.092-.168h-.576c.168.438.475.924.927 1.453l1.305 1.405c.538.578.936 1.083 1.195 1.517.331.543.528 1.092.59 1.645a5.15 5.15 0 00-.58-.356 4.72 4.72 0 01-.557-.27h-.192c.216.439.576 1.262 1.07 2.475.255.62.543 1.333.869 2.15.806 2.008 1.57 3.615 2.29 4.823-.082 0-.308-.096-.673-.288-.316-.164-.523-.256-.624-.28a.445.445 0 01-.052-.173v.169c.014 0 .028.004.052.01.034.071.077.153.14.245.13.178.192.346.192.515 0 .577-.192 1.443-.576 2.599-.384 1.155-.581 2.06-.581 2.704 0 .664.254 1.584.763 2.758.254.587.514 1.112.778 1.574h-.384c-.048 0-.178-.048-.394-.15a7.487 7.487 0 01-.74-.409.048.048 0 01-.023-.019c.062.13.115.323.144.583.01.077.02.163.024.25.014.216.154.924.413 2.132 0 .02.004.034.004.048.15 1.035.322 1.834.524 2.402.292.823.715 1.472 1.267 1.954h-.811c-.178-.102-.312-.174-.399-.227a2.28 2.28 0 01-.283-.183h-.134c.61 1.728 1.219 3.114 1.823 4.144.965 1.641 1.987 2.575 3.067 2.796-.062.183-.403.265-1.017.236a17.776 17.776 0 00-1.166-.096l.057.183a5.194 5.194 0 002.707 1.338c1.608.457 2.865.847 3.777 1.17 3.427 1.222 5.145 2.488 5.145 3.806 0 1.16-.96 1.901-2.89 2.224-.661.11-1.463.173-2.413.192-.999-.005-1.666-.01-2.006-.01-4.138 0-7.79-.192-10.962-.577-2.434-.298-4.33-.688-5.688-1.174-1.099-.559-1.79-1.343-2.073-2.354a4.075 4.075 0 01-.135-1.39l-.796 1.308a21.637 21.637 0 01-.293-8.114c.01-.005.014-.01.024-.014v-.14c-.01.053-.014.101-.024.15-.23.153-.47.336-.73.543-.201.14-.45.226-.739.255.068-.27.13-.597.188-.996.057-.385.086-.664.086-.842a8.11 8.11 0 00-.211-1.872c-.091-.385-.25-.857-.47-1.415a15.957 15.957 0 01-.466-1.3c-.14-.5-.216-1.01-.216-1.525 0-.241.005-.42.02-.535a1.55 1.55 0 01.11-.466c-.125.255-.289.606-.49 1.049a6.45 6.45 0 01-.451.832c-.221-.61-.341-1.04-.38-1.29-.019-.154-.028-.606-.028-1.362 0-.115.043-.644.134-1.597.091-.953.135-1.483.135-1.593 0-.414-.034-.77-.106-1.069a5.383 5.383 0 00-.235-.698c-.211-.548-.327-1.184-.336-1.91l-.95 1.16c.182-1.786-.413-3.466-1.776-5.05-.087-.1-.283-.235-.59-.399.244.895.292 2.233.148 4.024v.192a.464.464 0 01-.288-.125 2.507 2.507 0 01-.283-.255c0-.067-.005-.135-.01-.202v.192c.005.005.005.01.01.01.024.972-.115 1.867-.422 2.69-.264.693-.677 1.4-1.239 2.113-.043.058-.551.63-1.516 1.728-.586.664-1.003 1.251-1.253 1.757l-.153.014c.076-.38.172-.741.288-1.083.13-.356.225-.64.288-.852v-.192l-.192.115a9.404 9.404 0 00-2.938 2.575l-.148.202c-.95 1.367-1.464 2.907-1.531 4.63a1.948 1.948 0 01-.452-.587 1.698 1.698 0 01-.124-.958c-.207.419-.524.939-.946 1.564-.24.347-.62.89-1.128 1.622-.921 1.367-1.45 2.556-1.579 3.562a7.649 7.649 0 01-.605-1.026c-.124.41-.182.785-.182 1.122 0 .216.038.438.12.664l-.01.01c.015.024.024.038.034.057.816 1.348 2.179 2.484 4.09 3.413.12.062.637.288 1.55.693.638.274 1.137.529 1.497.755 1.041.664 1.564 1.536 1.564 2.604 0 .92-.576 1.627-1.718 2.118-.912.39-1.972.582-3.187.582-1.8 0-3.724-.284-5.778-.847-2.131-.587-4.085-1.396-5.856-2.426-1.934-1.126-3.44-2.401-4.53-3.826-1.214-1.593-1.82-3.277-1.82-5.053 0-.15.03-.395.097-.732.053-.274.192-.799.422-1.569-.014.005-.024.005-.038.01a8.183 8.183 0 00-1.42.553c.268-1.607.7-2.95 1.295-4.033.494-.895 1.214-1.8 2.165-2.714-.13 0-.288.029-.48.096a1.794 1.794 0 01-.279.077c.283-.577.845-1.246 1.68-1.997.26-.231 1.109-.934 2.544-2.099 1.099-.895 1.93-1.65 2.49-2.262.797-.866 1.31-1.698 1.546-2.492-.418 0-.73-.01-.936-.025-.36-.028-.624-.081-.797-.168.38-.135.73-.337 1.047-.606.955-.8 1.646-2.185 2.063-4.154.178-.847.332-1.94.461-3.268.135-1.444.226-2.329.264-2.661.077-.043.144-.082.207-.116l-.197.02c-.005.024-.005.062-.015.115-.24.144-.556.366-.95.655v-.193c.413-.727.653-1.242.72-1.55.034-.158.048-.635.048-1.439v-.067a25.985 25.985 0 00-.965-2.31 174.87 174.87 0 01-1.65-3.283c-.62-1.28-1.08-2.44-1.369-3.484a15.07 15.07 0 01-.439-2.17m2.532-10.362c3.546-2.736 6.033-5.485 7.461-8.249 3.175-1.911 3.175-1.911 5.526-5.317m18.694 9.875c1.62-2.171 2.429-6.036 2.429-11.593M72.913 93.272c-7.066-.964-13.15-5.36-18.252-13.185m35.243-45.703c-2.12 1.744-4.533 1.95-7.238.616" stroke="#01A2A2" stroke-width="2" fill="none" stroke-linecap="round" stroke-linejoin="round"/></svg>