<svg width="28" height="28" xmlns="http://www.w3.org/2000/svg"><g fill="#5C738A"><path d="M27.333 9.271l-2.09-2.073a3.072 3.072 0 01-2.255.929 3.07 3.07 0 01-2.256-.929c-.62-.619-.929-1.37-.929-2.255 0-.885.31-1.637.93-2.256L18.658.614a2.043 2.043 0 00-1.5-.614c-.592 0-1.092.205-1.501.614L.614 15.64c-.41.41-.614.91-.614 1.501 0 .591.205 1.092.614 1.501l2.073 2.09a3.072 3.072 0 012.256-.929c.884 0 1.636.31 2.255.929.62.619.929 1.37.929 2.255a3.07 3.07 0 01-.929 2.256l2.09 2.09c.41.409.91.613 1.501.613a2.04 2.04 0 001.501-.613l15.043-15.06c.41-.409.614-.91.614-1.5 0-.592-.205-1.092-.614-1.502zm-4.495 3.317l-10.25 10.25a1.01 1.01 0 01-.746.299c-.298 0-.547-.1-.746-.299l-6.004-6.004a1.02 1.02 0 01-.315-.746c0-.287.105-.536.315-.747l10.25-10.25c.199-.198.448-.298.746-.298.299 0 .547.1.747.299l6.003 6.004c.21.21.316.459.316.746 0 .288-.105.536-.316.746z"/><path d="M16.089 6.601l5.24 5.241-9.486 9.487-5.24-5.24z"/></g></svg>