<svg width="178" height="160" xmlns="http://www.w3.org/2000/svg"><path d="M175.55 96.455l-28.413-27.157c1.555.442 3.159.694 4.776.75h.162c5.85-.066 11.08-3.632 13.234-9.026a14.202 14.202 0 00-3.413-15.563 14.556 14.556 0 00-10.253-4.013 17.186 17.186 0 00-3.643.588 14.068 14.068 0 00-4.357-10.404 14.316 14.316 0 00-10.645-3.937c.294-1.192.457-2.412.486-3.639-.092-5.104-2.923-9.772-7.427-12.246a14.517 14.517 0 00-14.409.254c-4.412 2.631-7.074 7.396-6.982 12.5.098 1.658.416 3.295.944 4.87L77.117 2.248A8.298 8.298 0 0071.342 0a8.13 8.13 0 00-5.693 2.463L47.193 21.406a2.66 2.66 0 000 3.772l40.636 38.77H2.699C1.208 63.947 0 65.144 0 66.622v90.701A2.687 2.687 0 002.698 160h109.55c1.49 0 2.698-1.198 2.698-2.676V90.007l38.532 36.843a2.715 2.715 0 003.804 0l18.457-18.97a7.98 7.98 0 00-.216-11.344l.027-.08zm-74.15-26.89l-.405-.267 18.457-18.97 1.16 1.124 3.94 3.773.242.24-18.456 18.97-4.938-4.87zm50.269-22.768a8.592 8.592 0 016.422 2.515 8.883 8.883 0 012.12 9.697c-1.335 3.36-4.577 5.593-8.218 5.66-.81 0-3.967-.32-13.654-3.826l-1.133-1.097-6.017-5.752c3.75-1.632 8.095-3.398 11.872-4.79l.486-.16 1.457-.508a26.188 26.188 0 016.665-1.74zm-20.264-13.539a9.011 9.011 0 018.421 2.221 8.835 8.835 0 012.534 8.268c-3.103 1.097-6.88 2.675-11.225 4.441l-.405.16-1.592.696-2.023.883-1.323-1.284.378-.963a315.298 315.298 0 005.397-14.422h-.162zm-21.397-8.776c-.077-4.879 3.797-8.922 8.715-9.096a8.89 8.89 0 016.422 2.515 8.847 8.847 0 012.698 6.26 26.087 26.087 0 01-1.538 6.796l-.405 1.231-.215.669c-1.269 3.826-2.888 8.027-4.399 11.853l-7.15-6.85c-3.67-9.444-4.128-12.495-4.155-13.378h.027zM69.534 6.155a2.709 2.709 0 011.89-.83 2.44 2.44 0 011.915.75l36.831 35.237 4.884 4.655.513.509-18.43 18.97-44.17-42.248L69.534 6.155zM5.397 69.298h38.207v85.35H5.397v-85.35zM49 154.648v-85.35h17.08v85.35H49zm60.603 0H71.45v-85.35h21.964l16.19 15.465v69.886zm62.276-50.567l-16.594 17.043-41.122-39.358-3.94-3.772 18.457-18.97 1.457 1.391 41.661 39.893a2.66 2.66 0 010 3.773h.081z" fill="#FFF"/></svg>