<svg width="38" height="38" xmlns="http://www.w3.org/2000/svg" xmlns:xlink="http://www.w3.org/1999/xlink"><defs><filter x="-131.6%" y="-105.3%" width="363.2%" height="363.2%" filterUnits="objectBoundingBox" id="a"><feMorphology radius="5" in="SourceAlpha" result="shadowSpreadOuter1"/><feOffset dy="10" in="shadowSpreadOuter1" result="shadowOffsetOuter1"/><feGaussianBlur stdDeviation="20" in="shadowOffsetOuter1" result="shadowBlurOuter1"/><feColorMatrix values="0 0 0 0 0 0 0 0 0 0 0 0 0 0 0 0 0 0 0.2 0" in="shadowBlurOuter1"/></filter><circle id="b" cx="19" cy="19" r="19"/><path d="M16.913 4.548c.316.063.506.316.506.634 0 .188-.127.316-.254.443l-7.582 7.594a.67.67 0 01-.759.127c-.126-.127-.252-.252-.38-.316l-7.14-7.152C1.18 5.75.99 5.56.926 5.37c-.064-.253.063-.568.253-.696.252-.126.569-.126.757.065l7.204 7.215 7.204-7.215a.508.508 0 01.569-.191z" id="c"/></defs><g fill="none" fill-rule="evenodd"><use fill="#000" filter="url(#a)" xlink:href="#b"/><use fill="#01B4B4" xlink:href="#b"/><use fill="#FFF" xlink:href="#c" transform="translate(10 10)"/></g></svg>