<svg width="136" height="48" xmlns="http://www.w3.org/2000/svg"><path d="M31.087 14.012c0 3.037 2.306 5.245 5.484 5.245 3.18 0 5.429-2.038 5.429-5.07a5.74 5.74 0 00-1.22-3.526 16.122 16.122 0 00-6.844-5.148 22.34 22.34 0 00-10.23-1.41c-.64.05-1.282.113-1.916.197C9.1 5.881 0 13.93 0 27.246 0 41.814 12.688 48 25.52 48c5.59 0 13.307-1.475 16.107-3.09V26.216H24.123v1.412l5.886 1.03V45.08c-.81.07-1.621.148-2.355.148-9.932 0-13.683-9.342-13.683-19.35 0-7.94 3.125-14.449 7.614-17.438a10.64 10.64 0 014.843-1.747c2.23-.223 4.481.083 6.57.893.481.184.951.394 1.41.629.485.255.957.538 1.41.845a4.936 4.936 0 00-4.73 4.952zM91.407 12C95.227 12 98 9.49 98 6.029 98 2.565 95.133 0 91.407 0S85 2.538 85 6.029C85 9.519 87.637 12 91.407 12zM75.81 43.636v-18.61C75.81 18 70.977 14 62.546 14c-1.69 0-10.32.26-14.375 5.41a5.32 5.32 0 00-1.142 3.326c0 2.81 2.074 4.75 5.154 4.75s5.209-2.066 5.209-4.919c.04-2.506-1.963-4.582-4.504-4.667a14.432 14.432 0 015.51-1.018h.505c3.65.105 5.745 2.557 5.745 6.718l.051 6.22h-2.853C51.455 29.82 45 33.586 45 39.66c0 5.76 4.645 8.34 9.264 8.34 5.444 0 9.865-4.47 10.597-5.256l1.669 4.695H80v-1.8l-4.191-2.003h.002zM62.283 41C59.731 41 57 39.921 57 36.892c0-4.24 3.81-4.843 6.09-4.843L65 32v8.64a9.614 9.614 0 01-2.717.36zM96.18 14h-4.696L80 17.43v1.743h5.29v26.362l-3.672.936V48H100v-1.607l-3.812-1.008L96.18 14zm39.778 31.632l-4.127-2.003V25.025C131.83 18 127 14 118.568 14c-1.69 0-10.32.26-14.375 5.41a5.328 5.328 0 00-1.162 3.326c0 2.81 2.072 4.75 5.152 4.75s5.21-2.066 5.21-4.919c.04-2.507-1.964-4.583-4.505-4.667a14.432 14.432 0 015.51-1.018h.507c3.648.105 5.743 2.557 5.743 6.718l.051 6.22h-2.853c-10.39 0-16.846 3.767-16.846 9.84 0 5.761 4.646 8.34 9.264 8.34 5.446 0 9.865-4.47 10.598-5.256l1.668 4.695H136l-.042-1.807zM118.286 41c-2.552 0-5.286-1.078-5.286-4.107 0-4.24 3.813-4.843 6.089-4.843L121 32v8.64c-.88.248-1.795.37-2.714.36z" fill-rule="evenodd"/></svg>