<svg width="135" height="30" xmlns="http://www.w3.org/2000/svg" xmlns:xlink="http://www.w3.org/1999/xlink"><defs><path d="M4.238 6.901H7.48l-.62 1.91H4.24v10.68H1.841V8.812H.148V6.9h1.694V4.62c0-1.523.618-2.616 1.544-3.273C4.634.452 6.664.504 7.95 1.13l-.5 1.899c-1.43-.544-3.212-.552-3.212 1.773v2.1zm21.816-.267c3.472 0 5.248 2.636 5.263 6.213.001.45-.005.392-.005.838h-8.13c.134 1.217.391 2.21 1.168 2.956 1.316 1.266 3.324 1.549 5.976.242l.711 1.64c-1.976 1.307-5.699 1.713-7.878.04-1.44-1.024-2.366-3.02-2.366-5.426 0-4.056 2.274-6.503 5.261-6.503zm.025 1.859c1.823 0 2.8 1.75 2.8 3.427l-5.679.014c0-1.943 1.27-3.441 2.879-3.441zM14.029 6.93h2.013l.245 1.553c1.63-1.863 3.58-2.27 5.058-1.491l-.811 2.092c-1.48-.806-2.78-.068-4.136 1.3v9.107H14.03V6.932zM9.532 19.49h2.373V6.931H9.532v12.56zM10.72 1.336a1.54 1.54 0 011.548 1.534 1.54 1.54 0 01-1.548 1.533A1.541 1.541 0 019.172 2.87a1.54 1.54 0 011.548-1.534z" id="a"/></defs><g fill="none" fill-rule="evenodd" opacity=".7"><g transform="translate(79.333)"><mask id="b" fill="#fff"><use xlink:href="#a"/></mask><use fill="#FFF" xlink:href="#a"/><path d="M4.238 6.901H7.48l-.62 1.91H4.24v10.68H1.841V8.812H.148V6.9h1.694V4.62c0-1.523.618-2.616 1.544-3.273C4.634.452 6.664.504 7.95 1.13l-.5 1.899c-1.43-.544-3.212-.552-3.212 1.773v2.1zm21.816-.267c3.472 0 5.248 2.636 5.263 6.213.001.45-.005.392-.005.838h-8.13c.134 1.217.391 2.21 1.168 2.956 1.316 1.266 3.324 1.549 5.976.242l.711 1.64c-1.976 1.307-5.699 1.713-7.878.04-1.44-1.024-2.366-3.02-2.366-5.426 0-4.056 2.274-6.503 5.261-6.503zm.025 1.859c1.823 0 2.8 1.75 2.8 3.427l-5.679.014c0-1.943 1.27-3.441 2.879-3.441zM14.029 6.93h2.013l.245 1.553c1.63-1.863 3.58-2.27 5.058-1.491l-.811 2.092c-1.48-.806-2.78-.068-4.136 1.3v9.107H14.03V6.932zM9.532 19.49h2.373V6.931H9.532v12.56zM10.72 1.336a1.54 1.54 0 011.548 1.534 1.54 1.54 0 01-1.548 1.533A1.541 1.541 0 019.172 2.87a1.54 1.54 0 011.548-1.534z" fill="#666" mask="url(#b)"/></g><path d="M46.349 24.516c-4.322 3.145-10.588 4.817-15.984 4.817-7.561 0-14.37-2.756-19.523-7.345-.405-.36-.044-.852.442-.572 5.56 3.19 12.435 5.11 19.535 5.11 4.79 0 10.056-.98 14.901-3.006.731-.306 1.343.475.629.996" fill="#666"/><path d="M48.023 22.63c-.548-.712-3.621-.337-5.002-.17-.418.051-.483-.32-.106-.589 2.452-1.747 6.469-1.243 6.935-.657.47.59-.123 4.679-2.42 6.63-.354.3-.69.14-.533-.256.517-1.31 1.675-4.246 1.126-4.958M43.11 8.836v-1.73a.428.428 0 01.44-.439h7.767c.25 0 .449.18.449.436v1.484c-.003.249-.213.574-.585 1.09l-4.025 5.735c1.494-.035 3.075.189 4.431.95.306.173.389.426.413.676v1.846c0 .255-.28.55-.573.395-2.39-1.25-5.563-1.386-8.207.016-.27.144-.553-.147-.553-.402V17.14c0-.282.005-.761.289-1.19l4.662-6.677h-4.059a.432.432 0 01-.45-.436M15.35 20h-2.276a.438.438 0 01-.407-.403l.002-12.232c0-.245.196-.44.44-.44h2.12c.22.01.399.186.413.41v1.597h.042c.553-1.545 1.594-2.265 2.996-2.265 1.423 0 2.316.72 2.953 2.265.554-1.545 1.807-2.265 3.146-2.265.956 0 1.997.411 2.634 1.338.723 1.03.574 2.523.574 3.835l-.002 7.72a.44.44 0 01-.439.44h-2.274a.438.438 0 01-.408-.44v-6.484c0-.514.042-1.802-.065-2.29-.17-.824-.679-1.057-1.338-1.057-.552 0-1.126.386-1.36 1.005-.233.617-.213 1.646-.213 2.342v6.484c0 .244-.196.44-.438.44h-2.274a.438.438 0 01-.409-.44l-.002-6.484c0-1.364.212-3.371-1.402-3.371-1.637 0-1.573 1.956-1.573 3.37v6.485a.44.44 0 01-.44.44M58.645 9.116c-1.734 0-1.844 2.348-1.844 3.813 0 1.464-.021 4.596 1.822 4.596 1.822 0 1.91-2.526 1.91-4.066 0-1.01-.045-2.222-.352-3.181-.264-.834-.79-1.162-1.536-1.162zm-.022-2.45c3.49 0 5.377 2.98 5.377 6.768C64 17.095 61.916 20 58.623 20c-3.424 0-5.29-2.981-5.29-6.692 0-3.737 1.887-6.641 5.29-6.641zM68.01 20h-2.265a.438.438 0 01-.407-.44l-.005-12.236a.438.438 0 01.437-.399h2.108c.199.01.362.152.404.342v1.87h.042c.637-1.673 1.528-2.47 3.097-2.47 1.018 0 2.016.386 2.652 1.441.594.978.594 2.626.594 3.81v7.697a.438.438 0 01-.436.385h-2.278a.436.436 0 01-.404-.385v-6.642c0-1.338.149-3.294-1.421-3.294-.553 0-1.06.386-1.315.977-.318.747-.362 1.493-.362 2.317v6.587a.444.444 0 01-.442.44m-28.633-.196a.496.496 0 01-.56.055c-.787-.644-.928-.942-1.359-1.555C36.156 19.609 35.234 20 33.55 20 31.552 20 30 18.788 30 16.364c0-1.894 1.042-3.182 2.528-3.813 1.287-.556 3.083-.657 4.459-.808v-.304c0-.556.043-1.211-.289-1.692-.289-.429-.843-.606-1.33-.606-.905 0-1.709.456-1.907 1.401-.04.21-.196.419-.411.43l-2.299-.246c-.193-.043-.409-.196-.353-.488.529-2.742 3.046-3.571 5.301-3.571 1.155 0 2.662.302 3.572 1.161 1.153 1.061 1.042 2.475 1.042 4.016v3.634c0 1.094.462 1.573.895 2.163.151.212.185.464-.008.62a105.55 105.55 0 00-1.818 1.549l-.006-.006zm-2.39-5.688c0 .91.022 1.666-.444 2.475-.376.657-.975 1.06-1.64 1.06-.91 0-1.442-.681-1.442-1.692 0-1.986 1.811-2.348 3.527-2.348v.505zm-27.61 5.688a.496.496 0 01-.56.055c-.788-.644-.928-.942-1.358-1.555C6.155 19.609 5.234 20 3.548 20 1.553 20 0 18.788 0 16.364c0-1.894 1.042-3.182 2.528-3.813 1.286-.556 3.083-.657 4.457-.808v-.304c0-.556.046-1.211-.287-1.692-.289-.429-.843-.606-1.33-.606-.905 0-1.71.456-1.907 1.401-.04.21-.196.419-.411.43l-2.3-.246c-.194-.043-.41-.196-.353-.488.528-2.742 3.045-3.571 5.301-3.571 1.154 0 2.662.302 3.572 1.161 1.153 1.061 1.043 2.475 1.043 4.016v3.634c0 1.094.461 1.573.894 2.163.15.212.185.464-.008.62a98.462 98.462 0 00-1.818 1.549l-.006-.006zm-2.39-5.688c0 .91.022 1.666-.444 2.475-.376.657-.976 1.06-1.64 1.06-.91 0-1.442-.681-1.442-1.692 0-1.986 1.812-2.348 3.525-2.348v.505zM129.613 20l5.054-12.667h-2.485l-2.208 5.819c-.465 1.213-.91 2.382-1.301 3.595a72.386 72.386 0 00-1.297-3.595l-2.216-5.819h-2.493L127.738 20h1.875m-7.554-10.761h-3.38V20h-2.332V9.239h-3.68V7.333h10l-.608 1.906" fill="#666"/></g></svg>