<svg width="133" height="23" xmlns="http://www.w3.org/2000/svg"><path d="M8.678 18.988c-2.49 0-4.503-2.092-4.503-4.694 0-2.552 2.014-4.676 4.503-4.676 1.654 0 3.308.775 4.011 2.19.05.099.114.23.114.396v4.149a.86.86 0 01-.083.313c-.768 1.415-2.34 2.322-4.042 2.322m8.17 3.573V6.094h-4.045v1.383c-1.13-1.103-2.669-1.71-4.567-1.71-4.634 0-8.153 3.786-8.153 8.527 0 4.76 3.52 8.597 8.153 8.597 1.898 0 3.437-.643 4.567-1.746v1.416h4.045zm17.565 0v-8.908c0-4.38-3.388-7.887-7.71-7.887-4.338 0-7.71 3.506-7.71 7.887v8.908h4.042v-8.908c0-2.157 1.508-3.805 3.668-3.805 2.144 0 3.668 1.648 3.668 3.805v8.908h4.042zm10.282-3.573c-2.489 0-4.503-2.092-4.503-4.694 0-2.552 2.014-4.676 4.503-4.676 1.654 0 3.226.824 4.012 2.19.048.099.113.23.113.396v4.167a.807.807 0 01-.08.295c-.77 1.415-2.342 2.322-4.045 2.322m8.17 3.573V1.155H48.82v6.322c-1.128-1.103-2.669-1.762-4.567-1.762-4.633 0-8.152 3.838-8.152 8.58 0 4.76 3.519 8.596 8.152 8.596 1.898 0 3.439-.643 4.567-1.746v1.416h4.045zm6.187 0v-8.794c0-2.601 1.36-3.984 3.946-3.984V5.766c-5.207 0-7.988 2.783-7.988 8.001v8.794h4.042zm12.786-3.77c-2.455 0-4.451-2.01-4.451-4.497 0-2.47 1.996-4.477 4.451-4.477a4.464 4.464 0 014.471 4.477 4.47 4.47 0 01-4.47 4.497m0 4.1c4.732 0 8.562-3.836 8.562-8.597 0-4.74-3.83-8.528-8.563-8.528-4.713 0-8.545 3.787-8.545 8.528 0 4.76 3.832 8.597 8.545 8.597M84.264 4.844c1.295 0 2.342-1.072 2.342-2.371A2.352 2.352 0 0084.264.1c-1.292 0-2.34 1.054-2.34 2.372 0 1.3 1.048 2.371 2.34 2.371m2.014 1.25h-4.045V22.56h4.045V6.094zm10.43 12.894c-2.489 0-4.502-2.092-4.502-4.694 0-2.552 2.013-4.676 4.502-4.676 1.654 0 3.224.824 4.01 2.19a.84.84 0 01.115.396v4.182c0 .083-.049.23-.082.28-.768 1.415-2.34 2.322-4.043 2.322m8.168 3.573V1.155h-4.043v6.322c-1.13-1.103-2.669-1.71-4.567-1.71-4.633 0-8.154 3.786-8.154 8.527 0 4.76 3.52 8.613 8.154 8.613 1.898 0 3.437-.659 4.567-1.762v1.416h4.043zm21.317.001l6.647-16.484h-3.34l-5.436 14.294h1.13l-5.45-14.276h-3.44l6.647 16.466h3.242zm-10.69.197l.015-2.93h-.36c-2.373 0-4.044-1.433-4.044-3.854V8.813h4.273V6.095h-4.273V1.631h-2.962v14.343c0 4.265 2.75 6.784 7.007 6.784h.344z" fill="#949494"/></svg>