<svg width="57" height="27" xmlns="http://www.w3.org/2000/svg"><path d="M12.484 2.3C14.172.01 16.518 0 16.518 0s.35 2.152-1.328 4.224c-1.79 2.213-3.824 1.85-3.824 1.85s-.382-1.74 1.118-3.775zm-1.41 5.076c.903 0 2.578-1.28 4.76-1.28 3.754 0 5.23 2.753 5.23 2.753s-2.888 1.522-2.888 5.215c0 4.165 3.598 5.6 3.598 5.6s-2.515 7.296-5.913 7.296c-1.56 0-2.773-1.084-4.418-1.084-1.675 0-3.338 1.124-4.42 1.124C3.92 27 0 20.08 0 14.518c0-5.474 3.318-8.345 6.43-8.345 2.023 0 3.593 1.203 4.644 1.203zm21.902-.426h5.347v1.555h-5.347v12.807c0 1.31.207 2.312.623 3.007.416.696 1.132 1.044 2.152 1.044.482 0 .897-.027 1.246-.082a5.35 5.35 0 00.884-.205l.202 1.473c-.643.3-1.502.451-2.573.451-.885 0-1.615-.15-2.191-.45a3.476 3.476 0 01-1.367-1.248c-.335-.533-.57-1.173-.704-1.923a13.771 13.771 0 01-.201-2.435V8.505h-3.176V6.951h3.176V3.349l1.929-.736V6.95zm9.078.019l4.376 12.437c.37.974.702 1.892.994 2.754.292.862.57 1.711.835 2.545h.08c.264-.806.55-1.649.855-2.525.305-.876.643-1.801 1.014-2.775l4.416-12.437h1.989L49.014 27h-1.63l-7.32-20.031h1.99z" fill="#949494"/></svg>