<svg width="148" height="30" xmlns="http://www.w3.org/2000/svg"><defs><filter id="a"><feColorMatrix in="SourceGraphic" values="0 0 0 0 0.400000 0 0 0 0 0.400000 0 0 0 0 0.400000 0 0 0 0.700000 0"/></filter></defs><g transform="translate(-454 -831)" filter="url(#a)" fill="none" fill-rule="evenodd"><path d="M492.017 846.379c0-3.227 2.27-5.695 5.484-5.695 2.554 0 3.972 1.519 4.635 3.038l-1.797.855c-.473-1.234-1.513-1.994-2.931-1.994-1.702 0-3.31 1.52-3.31 3.893 0 2.278 1.608 3.893 3.31 3.893 1.513 0 2.553-.76 3.121-1.994l1.797.76c-.661 1.519-2.174 3.038-4.728 3.038-3.312-.097-5.581-2.567-5.581-5.794zm13.713-5.316l-.095 1.519h.095c.568-.95 1.89-1.804 3.404-1.804 2.742 0 4.066 1.804 4.066 4.461v6.55h-1.985v-6.263c0-2.183-1.135-2.943-2.648-2.943-1.702 0-2.837 1.615-2.837 3.323v5.886h-1.986v-15.571h1.986v4.842zm9.551 10.728v-10.728h1.89v1.708h.096c.473-1.234 1.986-1.993 3.121-1.993.662 0 1.04.095 1.513.285l-.756 1.898a3.37 3.37 0 00-1.04-.19c-1.325 0-2.743 1.139-2.743 3.134v5.886h-2.08zm17.59-5.412c0 3.227-2.27 5.695-5.485 5.695-3.215 0-5.485-2.468-5.485-5.695 0-3.227 2.27-5.695 5.485-5.695 3.215 0 5.485 2.468 5.485 5.695zm-1.986 0c0-2.468-1.702-3.893-3.499-3.893-1.797 0-3.499 1.424-3.499 3.893 0 2.47 1.702 3.893 3.5 3.893 1.796 0 3.498-1.425 3.498-3.893zm3.594-5.316h1.89v1.519h.096c.568-1.045 1.986-1.804 3.31-1.804 1.702 0 2.837.76 3.404 2.089.756-1.234 2.08-2.09 3.687-2.09 2.554 0 3.783 1.805 3.783 4.462v6.55h-2.08v-6.263c0-2.183-.852-2.943-2.366-2.943-1.608 0-2.742 1.615-2.742 3.323v5.886h-1.986v-6.266c0-2.183-.851-2.943-2.364-2.943-1.609 0-2.743 1.615-2.743 3.323v5.886h-1.986v-10.728h.097v-.001zm17.59 5.316c0-3.038 2.08-5.695 5.2-5.695 3.122 0 5.201 2.278 5.201 5.695v.379h-8.417c.095 2.278 1.702 3.512 3.404 3.512 1.134 0 2.365-.474 2.93-1.804l1.798.76c-.662 1.519-2.175 2.942-4.635 2.942-3.307-.092-5.481-2.562-5.481-5.789zm5.2-3.797c-1.513 0-2.647 1.044-3.026 2.563h6.148c-.095-.949-.852-2.563-3.122-2.563zm6.337 3.797c0-3.227 2.27-5.695 5.484-5.695 2.554 0 3.972 1.519 4.635 3.038l-1.797.76c-.473-1.235-1.513-1.994-2.931-1.994-1.702 0-3.31 1.519-3.31 3.892 0 2.279 1.608 3.893 3.31 3.893 1.513 0 2.553-.76 3.121-1.993l1.797.76c-.661 1.518-2.174 3.037-4.728 3.037-3.312-.001-5.581-2.47-5.581-5.698zm11.348 2.184c0-2.374 2.175-3.701 4.635-3.701 1.418 0 2.458.379 2.837.664v-.381c0-1.614-1.324-2.563-2.742-2.563-1.134 0-2.175.57-2.554 1.519l-1.797-.76c.378-.949 1.608-2.563 4.35-2.563 2.554 0 4.729 1.519 4.729 4.557v6.454h-1.89v-1.519h-.096c-.568.855-1.702 1.804-3.499 1.804-2.176.002-3.973-1.328-3.973-3.51zm7.472-1.425s-.852-.664-2.553-.664c-2.081 0-2.932 1.139-2.932 2.09 0 1.138 1.135 1.708 2.175 1.708 1.702 0 3.31-1.33 3.31-3.134zm3.215 1.9l1.797-.76c.568 1.33 1.608 1.994 2.838 1.994 1.229 0 2.08-.57 2.08-1.52 0-.57-.283-1.138-1.418-1.423l-2.174-.474c-.945-.285-2.838-1.044-2.838-2.942 0-1.898 1.986-3.134 4.16-3.134 1.798 0 3.405.855 4.067 2.468l-1.701.76c-.378-1.045-1.418-1.424-2.459-1.424-1.134 0-2.08.475-2.08 1.33 0 .664.567 1.044 1.417 1.234l2.081.474c2.081.474 2.931 1.804 2.931 3.133 0 1.898-1.702 3.323-4.16 3.323-2.459 0-3.973-1.52-4.54-3.04zm11.348-.57v-5.601h-1.89v-1.804h1.89v-3.228h1.986v3.228h2.554v1.804h-2.554v5.411c0 1.234.473 1.709 1.418 1.709.38 0 .662 0 .946-.19l.661 1.709c-.473.19-.945.285-1.608.285-2.173.094-3.403-1.14-3.403-3.323zm-114.335-8.259h-10.213c1.89 1.234 3.215 3.323 3.215 5.791 0 .474-.095 1.044-.188 1.519v.095c-.096.76-.378 1.424-.757 2.09L468.281 861h.568c8.227 0 14.942-6.646 14.942-15-.001-2.089-.38-4.082-1.137-5.79zm-13.712 12.53c-1.89 0-3.687-.854-4.916-2.088a9.521 9.521 0 01-1.23-1.52l-.188-.189-6.338-10.917A15.107 15.107 0 00454 846c0 7.69 5.673 13.956 13.05 14.809l5.107-8.924c-.945.57-2.08.855-3.215.855zm0-21.739c-4.916 0-9.267 2.374-12.01 6.076l5.108 8.733c.095.096.095.285.095.379v-.285c0-3.323 2.458-6.171 5.58-6.646h.095c.568-.19 1.134-.19 1.702-.19h12.577c-2.461-4.744-7.473-8.067-13.147-8.067zm5.39 15a5.399 5.399 0 01-5.391 5.412c-3.026 0-5.391-2.468-5.391-5.412s2.46-5.412 5.392-5.412c2.931-.095 5.39 2.374 5.39 5.412z" fill="#7A7A7E" fill-rule="nonzero"/></g></svg>