<svg width="73" height="22" xmlns="http://www.w3.org/2000/svg"><g fill="#666" opacity=".7"><path d="M11.32 7.348c0-2.045-1.643-3.692-3.652-3.692h-1.81v7.35h1.81a3.665 3.665 0 003.651-3.658M19.556 22h-6.647l-5.277-7.334H5.858v7.318H0V0h8.391c4.838 0 8.786 3.294 8.786 7.348 0 2.472-1.513 4.68-3.817 6.03L19.556 22"/><path d="M26.146 8.015c-1.555 0-2.879 2.153-2.879 4.818 0 2.664 1.324 4.82 2.88 4.82 1.59 0 2.912-2.156 2.912-4.82 0-2.665-1.321-4.818-2.913-4.818m9.067 4.818c0 5.09-4.067 9.167-9.067 9.167-4.999 0-9.035-4.077-9.035-9.167 0-5.088 4.036-9.166 9.035-9.166 5 0 9.067 4.078 9.067 9.166m13.823-8.794l-6.786 6.908v-6.93h-5.889V21.63h5.89v-7.145l7.084 7.145h7.412l-9.002-9.167 7.456-7.589v10.453c0 3.47 2.05 6.673 7.212 6.673 2.451 0 4.7-1.415 5.793-2.696l2.648 2.326h1.257V4.04h-5.89v11.388c-.662 1.179-1.587 1.92-3.015 1.92-1.449 0-2.114-.875-2.114-3.672V4.039H49.036z"/></g></svg>